<svg width="28" height="30" viewBox="0 0 28 30" fill="none" xmlns="http://www.w3.org/2000/svg">
<path d="M13.9343 29.5C7.60965 29.5 2.73438 24.7565 2.73438 18.5636C2.73438 16.3236 3.12967 14.6106 3.92025 13.293C4.71084 12.1071 5.10613 11.5801 5.76495 10.9213C6.02848 10.7895 6.16024 10.526 6.42377 10.2624L6.81906 9.73537C7.47789 9.07655 7.60965 8.94479 8.26847 7.75891C8.92729 6.57303 9.45435 3.80599 9.45435 1.82952C9.45435 1.30247 9.71788 0.907174 10.2449 0.643645C10.6402 0.380117 11.1673 0.511881 11.5626 0.77541L12.2214 1.30247C13.6708 2.35658 15.5155 3.93775 16.9649 6.17774C17.8873 7.62715 18.8096 9.60361 19.3367 11.1848C19.6002 10.6577 19.8637 9.9989 19.9955 9.20832C20.1272 8.68126 20.5225 8.1542 21.0496 8.02244C21.5767 7.89068 22.2355 8.1542 22.499 8.68126C23.4214 10.2624 23.5531 10.526 24.3437 12.8977C25.1343 15.4012 25.2661 16.9824 25.2661 18.4318C25.1343 24.493 20.1272 29.5 13.9343 29.5ZM11.8261 4.46481C11.5626 6.17774 11.1673 7.89068 10.5085 9.07655C9.71788 10.3942 9.45435 10.7895 8.79553 11.5801L8.40024 11.9754C8.13671 12.2389 7.87318 12.5024 7.74141 12.766C7.21436 13.4248 6.81906 13.8201 6.16024 14.7424C5.63319 15.6648 5.36966 16.9824 5.36966 18.6953C5.36966 23.3071 9.19082 26.9965 13.9343 26.9965C18.6778 26.9965 22.499 23.1753 22.499 18.4318C22.499 17.1142 22.499 15.9283 21.7084 13.8201C21.5767 13.4248 21.4449 13.1612 21.4449 12.8977C20.7861 13.9518 19.9955 14.6106 19.6002 14.8742C19.2049 15.1377 18.6778 15.2695 18.1508 15.0059C17.7555 14.7424 17.3602 14.3471 17.3602 13.8201C17.3602 13.4248 16.3061 9.86714 14.8567 7.62715C13.9343 6.30951 12.8802 5.25539 11.8261 4.46481Z" fill="#6F6E7C"/>
</svg>
