<svg width="28" height="28" viewBox="0 0 28 28" fill="none" xmlns="http://www.w3.org/2000/svg">
<path d="M25.5138 1.75586L15.8084 0.0445153C14.1752 -0.243407 12.6122 0.850971 12.3242 2.48428L12.0933 3.7933C11.9784 3.81031 11.8637 3.83328 11.7498 3.86379L2.23051 6.41452C1.45452 6.62243 0.805901 7.12013 0.404238 7.81585C0.00257459 8.51162 -0.104171 9.32218 0.103797 10.0982L4.30242 25.7679C4.51034 26.5439 5.00803 27.1925 5.70379 27.5942C6.16725 27.8618 6.68151 27.9984 7.20271 27.9984C7.46394 27.9984 7.72698 27.9641 7.98608 27.8946L17.5054 25.3439C18.2813 25.136 18.93 24.6383 19.3316 23.9426C19.451 23.7359 19.5436 23.5189 19.6104 23.2958L21.6523 23.6559C21.8282 23.6869 22.0032 23.7019 22.176 23.7019C23.6074 23.7019 24.8796 22.6735 25.1366 21.2161L27.9535 5.24019C28.2415 3.60693 27.147 2.04389 25.5138 1.75586ZM18.0474 22.0849C18.1419 22.4376 18.0934 22.8061 17.9108 23.1223C17.7282 23.4386 17.4334 23.6648 17.0807 23.7593L7.56139 26.31C7.20867 26.4046 6.84026 26.3561 6.52401 26.1734C6.20777 25.9908 5.98153 25.696 5.88704 25.3433L1.68841 9.67359C1.59392 9.32087 1.64242 8.95239 1.82502 8.63614C2.00761 8.31989 2.30242 8.09371 2.65514 7.99916L12.1744 5.44843C12.2922 5.41688 12.4118 5.40124 12.5305 5.40124C12.7674 5.40124 13.0012 5.46336 13.2118 5.58498C13.528 5.76758 13.7543 6.06239 13.8488 6.41512L18.0474 22.0849ZM16.4044 9.61437C16.4104 9.5675 16.4167 9.52069 16.4249 9.47421C16.5134 8.97219 16.9516 8.61798 17.4447 8.61798C17.5042 8.61798 17.5645 8.62312 17.6251 8.63384C18.0067 8.70116 18.3166 8.97323 18.4335 9.34389C18.5255 9.63553 18.7721 9.85176 19.0733 9.90486C19.3746 9.95801 19.6802 9.83913 19.8664 9.59659C20.1031 9.28827 20.4872 9.1386 20.8689 9.20586C21.1414 9.25393 21.3789 9.40525 21.5377 9.63192C21.6964 9.85859 21.7574 10.1335 21.7093 10.4061C21.3831 12.2564 19.2977 13.8309 18.2613 14.5102C18.0014 14.1621 17.658 13.6664 17.3357 13.09L16.4044 9.61437ZM26.3379 4.95533L23.5209 20.9313C23.39 21.6737 22.6795 22.171 21.9371 22.0403L19.6246 21.6326L18.2212 16.395C18.3044 16.3795 18.3863 16.351 18.4638 16.3087C18.6387 16.2134 22.7526 13.9368 23.3249 10.6909C23.5812 9.23747 22.6072 7.84647 21.1538 7.59021C20.5535 7.4844 19.9509 7.58595 19.4337 7.86107C19.0417 7.42561 18.5103 7.12407 17.9099 7.0182C17.206 6.89401 16.4956 7.0515 15.9099 7.46159C15.8865 7.478 15.8639 7.49528 15.8411 7.51229L15.4334 5.99054C15.2255 5.21454 14.7278 4.56591 14.032 4.16424C13.9308 4.10578 13.8268 4.05432 13.7212 4.00844L13.9397 2.76914C14.0706 2.02678 14.7812 1.5293 15.5235 1.66016L25.2288 3.37151C25.9713 3.50243 26.4688 4.21291 26.3379 4.95533Z" fill="#6F6E7C"/>
</svg>
