<svg width="28" height="28" viewBox="0 0 28 28" fill="none" xmlns="http://www.w3.org/2000/svg">
<path d="M26.612 10.0702C24.7139 3.74817 17.5961 0.387108 10.8123 2.52112C4.02844 4.65513 0.109276 11.4929 2.01613 17.7971C2.33378 18.8449 2.80792 19.8374 3.42211 20.7402C3.53433 20.9072 3.58702 21.1079 3.5715 21.3093C3.51039 21.9851 3.30415 22.6391 2.96719 23.2258C2.63023 23.8125 2.17069 24.3177 1.6207 24.7059C0.53107 25.4528 0.689242 26.2531 1.9722 26.1019C3.54989 25.9539 5.04855 25.3349 6.27801 24.3236C6.38212 24.2006 6.52694 24.1201 6.68541 24.0972C6.84388 24.0743 7.00517 24.1105 7.13917 24.1991C10.1884 26.2442 13.8351 26.5821 17.8598 25.3106C24.6084 23.2121 28.5452 16.3744 26.612 10.0702Z" stroke="#6F6E7C" stroke-width="1.8" stroke-miterlimit="10"/>
</svg>
