<svg width="28" height="29" viewBox="0 0 28 29" fill="none" xmlns="http://www.w3.org/2000/svg">
<path d="M13.9997 11.7379C16.9696 11.7379 19.3772 9.33411 19.3772 6.36893C19.3772 3.40375 16.9696 1 13.9997 1C11.0297 1 8.62207 3.40375 8.62207 6.36893C8.62207 9.33411 11.0297 11.7379 13.9997 11.7379Z" stroke="#6F6E7C" stroke-width="1.98" stroke-miterlimit="10"/>
<path d="M5.1163 25.8165C4.71072 25.6763 4.36566 25.4013 4.13876 25.0375C3.91187 24.6737 3.8169 24.2432 3.86972 23.8179C4.14007 21.3236 5.324 19.0168 7.1941 17.3409C9.06421 15.6649 11.4886 14.7379 14.0016 14.7379C16.5146 14.7379 18.939 15.6649 20.8091 17.3409C22.6792 19.0168 23.8631 21.3236 24.1335 23.8179C24.1803 24.2377 24.0835 24.661 23.8589 25.0189C23.6342 25.3768 23.2948 25.6483 22.896 25.7893C21.613 26.2253 19.0653 26.6977 14.0062 26.6977C8.94704 26.6977 6.39928 26.2526 5.1163 25.8165Z" stroke="#6F6E7C" stroke-width="1.8" stroke-miterlimit="10"/>
</svg>
